<?xml version="1.0" encoding="UTF-8" standalone="no"?>
<!-- Created with Inkscape (http://www.inkscape.org/) -->

<svg
   width="75.801895mm"
   height="75.84108mm"
   viewBox="0 0 75.801895 75.84108"
   version="1.1"
   id="svg1"
   xml:space="preserve"
   xmlns="http://www.w3.org/2000/svg"
   xmlns:svg="http://www.w3.org/2000/svg"><defs
     id="defs1" /><g
     id="layer1"
     transform="translate(-50.136763,-128.4285)"><path
       style="fill:#000000"
       d="m 87.15768,204.25497 c -3.68161,-0.12375 -6.653,-0.60021 -10.01926,-1.6066 -6.81684,-2.03798 -13.158143,-6.17986 -17.850055,-11.65892 -1.707123,-1.99352 -3.213071,-4.14909 -4.452374,-6.37299 -1.809304,-3.24676 -3.185795,-6.95785 -3.903559,-10.52421 -0.56699,-2.8172 -0.793954,-5.01315 -0.795662,-7.69826 -0.0013,-2.10817 0.153203,-4.09444 0.462497,-5.94423 0.764152,-4.57016 2.188627,-8.65908 4.372478,-12.55109 2.951866,-5.26074 7.33048,-9.93189 12.493531,-13.32821 7.089686,-4.66369 15.272234,-6.72016 23.882604,-6.00228 7.56725,0.63091 14.778,3.61518 20.75607,8.59019 1.75444,1.46007 3.60251,3.30026 5.05144,5.02994 1.99646,2.3833 3.71637,5.05206 5.06846,7.86464 1.52021,3.16232 2.63695,6.72576 3.246,10.35783 0.48709,2.90473 0.60008,6.30666 0.31331,9.43281 -0.17064,1.86016 -0.50314,3.81888 -0.97266,5.72985 -1.36465,5.55409 -4.15447,10.91065 -8.04932,15.45499 -1.15344,1.34578 -3.00719,3.18357 -4.26745,4.23069 -5.35187,4.44676 -11.19945,7.21136 -17.80049,8.41565 -2.36883,0.43217 -5.27724,0.6561 -7.53556,0.5802 z m 3.54499,-2.82285 c 5.6741,-0.43583 11.10838,-2.246 16.02589,-5.33825 2.44794,-1.53933 4.81616,-3.4757 6.69619,-5.47514 3.36337,-3.57699 5.79687,-7.4214 7.48489,-11.82453 0.75143,-1.96007 1.39909,-4.32476 1.75754,-6.417 0.4132,-2.41182 0.55063,-4.1648 0.5149,-6.56785 -0.0224,-1.50873 -0.0706,-2.22196 -0.24485,-3.62504 -0.53565,-4.31316 -1.84993,-8.49526 -3.828,-12.1808 -0.69605,-1.29686 -1.50434,-2.62392 -2.18422,-3.58602 -1.39957,-1.98057 -2.50991,-3.30742 -4.07813,-4.87334 -3.59266,-3.58738 -7.7787,-6.30347 -12.51445,-8.11992 -3.13638,-1.20299 -6.43278,-1.9268 -9.998,-2.1953 -0.87754,-0.0661 -3.69657,-0.0666 -4.56049,-8.5e-4 -3.73405,0.28425 -6.86502,0.97943 -10.219602,2.26909 -2.008166,0.77204 -4.159067,1.8495 -6.042506,3.02691 -2.455561,1.53507 -5.070962,3.68326 -7.041539,5.78366 -3.520077,3.75198 -6.1775,8.17177 -7.744109,12.87992 -0.932567,2.80266 -1.487569,5.50807 -1.759175,8.57528 -0.09869,1.11446 -0.09888,4.06903 -3.37e-4,5.20363 0.17764,2.04534 0.485548,3.92538 0.946243,5.77761 1.017754,4.09189 2.576261,7.60778 4.929042,11.11959 2.837411,4.23518 6.526544,7.78831 10.83385,10.43446 1.380594,0.84815 3.283378,1.83358 4.716404,2.44257 1.972059,0.83806 4.239439,1.56039 6.258769,1.99387 3.38393,0.72642 6.68901,0.95575 10.05169,0.69745 z m 12.72844,-17.43943 -0.83747,-0.83815 2.38721,-2.38744 c 1.31296,-1.31309 2.38719,-2.39616 2.38718,-2.40682 -2e-5,-0.0106 -1.51287,-0.0195 -3.3619,-0.0197 -3.59229,-3.5e-4 -3.69942,-0.005 -4.5897,-0.20085 -1.51891,-0.33407 -2.6593,-0.96956 -3.84034,-2.14006 -0.90682,-0.89873 -1.84747,-2.16859 -2.88093,-3.88921 -0.4572,-0.7612 -0.91954,-1.60619 -0.91641,-1.67486 0.001,-0.0255 0.29665,-0.63278 0.65663,-1.34958 l 0.65451,-1.30327 0.26538,0.50421 c 0.93676,1.77981 1.47914,2.71399 2.20531,3.79842 0.94621,1.41302 1.68106,2.25186 2.51237,2.86793 0.59035,0.4375 1.26138,0.71491 2.12732,0.87945 0.42926,0.0816 0.55612,0.0849 3.82538,0.10001 1.85976,0.009 3.38138,0.007 3.38138,-0.003 0,-0.0103 -1.07621,-1.10291 -2.39157,-2.42809 l -2.39158,-2.40942 0.82269,-0.84724 0.82269,-0.84723 3.84915,3.84786 c 2.11703,2.11633 3.84476,3.85984 3.83939,3.87449 -0.0163,0.0444 -7.63551,7.71072 -7.66335,7.71072 -0.0142,0 -0.40273,-0.37716 -0.86334,-0.83815 z m -38.549663,-6.84062 v -7.56184 h 1.266664 1.266664 l 0.0099,5.3275 0.0099,5.32751 0.492333,-0.75727 c 1.213623,-1.8667 1.842052,-2.82824 3.386355,-5.18134 0.907488,-1.38276 1.969289,-3.00524 2.359558,-3.60551 l 0.709579,-1.0914 1.247994,-0.0103 1.248,-0.0103 -0.006,7.55263 -0.005,7.55262 -1.257334,0.0103 -1.257332,0.0103 0.01002,-5.36009 c 0.0055,-2.94805 0.0012,-5.35943 -0.0095,-5.35862 -0.01072,8e-4 -0.211687,0.30337 -0.446595,0.67238 -0.234908,0.369 -1.066716,1.6444 -1.848462,2.83422 -1.31311,1.99856 -2.798137,4.27706 -4.147292,6.36325 l -0.548267,0.84778 h -1.240585 -1.240584 z m 14.383083,0.0238 v -1.18453 l 1.12063,-0.0191 c 1.25674,-0.0214 1.61287,-0.0658 2.25691,-0.28121 0.52164,-0.17449 0.9363,-0.38666 1.33843,-0.68482 1.20214,-0.89133 2.46577,-2.58181 4.00474,-5.35753 0.57265,-1.03283 1.04114,-1.92986 2.30436,-4.41224 1.95171,-3.83534 2.60002,-4.99655 3.59812,-6.44469 1.87606,-2.72197 3.83026,-4.04922 6.4242,-4.36319 0.20132,-0.0244 1.62437,-0.0402 3.64449,-0.0406 1.82281,-3.3e-4 3.33552,-0.0141 3.36157,-0.0307 0.0315,-0.02 -0.74212,-0.81952 -2.30947,-2.38672 -1.29627,-1.29613 -2.35686,-2.37041 -2.35686,-2.38728 0,-0.0169 0.36958,-0.40154 0.82128,-0.85484 l 0.82128,-0.82418 3.83443,3.83428 c 2.38751,2.38742 3.82424,3.85176 3.80742,3.88059 -0.0148,0.0255 -1.74416,1.77177 -3.8429,3.88067 l -3.8159,3.83436 -0.81363,-0.83556 c -0.4475,-0.45956 -0.80887,-0.84842 -0.80306,-0.86414 0.006,-0.0157 1.07615,-1.09926 2.37852,-2.40786 1.30237,-1.30861 2.36794,-2.39752 2.36794,-2.41981 0,-0.0277 -1.01874,-0.0403 -3.22547,-0.0398 -3.49342,8.3e-4 -3.69151,0.0104 -4.44178,0.21481 -1.49211,0.40649 -2.62778,1.37282 -3.98401,3.38995 -0.89704,1.33417 -1.38632,2.21518 -3.06277,5.51493 -1.51648,2.98489 -1.96916,3.85201 -2.56423,4.91183 -2.72885,4.86011 -4.58069,6.72136 -7.33137,7.36863 -0.6544,0.15398 -1.115,0.19164 -2.35377,0.19244 l -1.1791,7.6e-4 z m 9.61862,-12.42588 c -0.0747,-0.13555 -0.23765,-0.4394 -0.36199,-0.67522 -2.20207,-4.17621 -3.82876,-6.21006 -5.53812,-6.92429 -0.2053,-0.0858 -0.56027,-0.20184 -0.78883,-0.25791 l -0.41557,-0.10195 -2.4459,-0.0143 -2.4459,-0.0143 v -1.1867 -1.18671 l 2.4459,7.2e-4 c 2.68207,7.8e-4 2.8742,0.0129 3.7037,0.23431 1.30017,0.34698 2.35665,0.97924 3.41963,2.04652 1.2012,1.20606 2.1975,2.6147 3.50367,4.95375 l 0.41623,0.74537 -0.64799,1.28151 c -0.3564,0.70484 -0.66171,1.29596 -0.67846,1.3136 -0.0168,0.0176 -0.0916,-0.0788 -0.16637,-0.21438 z m -21.624012,-2.80396 v -1.20393 h 1.188845 1.188846 v -3.78034 -3.78035 l -1.179101,-0.0103 -1.179101,-0.0103 v -1.18884 -1.18884 l 2.426414,-0.01 2.426414,-0.01 v 4.98954 4.98955 h 1.16992 1.169919 l -0.01031,1.19859 -0.01031,1.19859 -3.59577,0.005 -3.59577,0.005 z m 3.186657,-12.90076 c -0.467141,-0.11013 -0.913058,-0.48426 -1.151004,-0.96571 -0.143324,-0.28999 -0.145194,-0.29983 -0.145194,-0.76354 0,-0.44538 0.0063,-0.48292 0.121237,-0.72313 0.308476,-0.64465 0.895559,-1.01344 1.613308,-1.01344 0.719231,0 1.295165,0.36222 1.607085,1.01074 0.103945,0.21612 0.125737,0.3123 0.139699,0.61654 0.01832,0.39918 -0.02469,0.62751 -0.174369,0.9258 -0.301032,0.59991 -0.89175,0.95972 -1.561441,0.95107 -0.166822,-0.002 -0.369017,-0.0194 -0.449321,-0.0383 z"
       id="path1" /></g></svg>
